<?xml version="1.0" encoding="UTF-8" standalone="no"?>
<!-- Created with Inkscape (http://www.inkscape.org/) -->

<svg
   xmlns:dc="http://purl.org/dc/elements/1.1/"
   xmlns:cc="http://creativecommons.org/ns#"
   xmlns:rdf="http://www.w3.org/1999/02/22-rdf-syntax-ns#"
   xmlns:svg="http://www.w3.org/2000/svg"
   xmlns="http://www.w3.org/2000/svg"
   xmlns:sodipodi="http://sodipodi.sourceforge.net/DTD/sodipodi-0.dtd"
   xmlns:inkscape="http://www.inkscape.org/namespaces/inkscape"
   width="150mm"
   height="50mm"
   viewBox="0 0 150 50"
   version="1.1"
   id="svg8"
   inkscape:version="0.92.3 (2405546, 2018-03-11)"
   sodipodi:docname="logo.svg">
  <defs
     id="defs2" />
  <sodipodi:namedview
     id="base"
     pagecolor="#ffffff"
     bordercolor="#666666"
     borderopacity="1.0"
     inkscape:pageopacity="0.0"
     inkscape:pageshadow="2"
     inkscape:zoom="1.979899"
     inkscape:cx="268.40156"
     inkscape:cy="96.514172"
     inkscape:document-units="mm"
     inkscape:current-layer="layer1"
     showgrid="false"
     units="mm"
     inkscape:pagecheckerboard="true"
     inkscape:window-width="1920"
     inkscape:window-height="1017"
     inkscape:window-x="-8"
     inkscape:window-y="-8"
     inkscape:window-maximized="1" />
  <metadata
     id="metadata5">
    <rdf:RDF>
      <cc:Work
         rdf:about="">
        <dc:format>image/svg+xml</dc:format>
        <dc:type
           rdf:resource="http://purl.org/dc/dcmitype/StillImage" />
        <dc:title></dc:title>
      </cc:Work>
    </rdf:RDF>
  </metadata>
  <g
     inkscape:label="Layer 1"
     inkscape:groupmode="layer"
     id="layer1"
     transform="translate(0,-247)">
    <rect
       style="display:none;opacity:1;vector-effect:none;fill:#ffffff;fill-opacity:1;fill-rule:nonzero;stroke:none;stroke-width:1;stroke-linecap:round;stroke-linejoin:round;stroke-miterlimit:4;stroke-dasharray:none;stroke-dashoffset:0;stroke-opacity:1;paint-order:normal"
       id="rect4526"
       width="171.05249"
       height="73.632751"
       x="-12.828938"
       y="236.06255" />
    <path
       style="display:inline;opacity:1;vector-effect:none;fill:#ff8800;fill-opacity:1;fill-rule:nonzero;stroke:none;stroke-width:1.56338036;stroke-linecap:round;stroke-linejoin:round;stroke-miterlimit:4;stroke-dasharray:none;stroke-dashoffset:0;stroke-opacity:1;paint-order:normal"
       d="m 4.4100667,255.43411 v 29.66692 H 34.076989 v -29.66692 z m 1.5027505,7.29723 h 3.4602539 l 2.7409179,9.76064 0.880566,3.19981 0.917774,-3.38584 2.716113,-9.57461 h 3.249414 l -4.97334,16.20986 h -4.043164 z m 15.6641598,0 h 4.750098 c 1.050066,0 1.976108,0.11575 2.778126,0.34726 0.810286,0.22325 1.488281,0.55398 2.033984,0.99219 0.553972,0.43822 0.971516,0.97979 1.252636,1.62471 0.289388,0.63665 0.434083,1.36839 0.434083,2.19521 0,0.84336 -0.14056,1.62471 -0.42168,2.34405 -0.28112,0.71106 -0.698666,1.32705 -1.252638,1.84795 -0.553971,0.52089 -1.244367,0.92604 -2.07119,1.21543 -0.826823,0.28938 -1.785937,0.43408 -2.877345,0.43408 h -1.550293 v 5.20898 h -3.075781 z m 3.075781,2.53008 v 5.94072 h 1.699121 c 0.529168,0 0.996322,-0.0703 1.401465,-0.21084 0.405143,-0.14883 0.744141,-0.35967 1.016992,-0.63252 0.28112,-0.27285 0.491961,-0.59945 0.632521,-0.97978 0.148828,-0.38034 0.223242,-0.80616 0.223242,-1.27745 0,-0.42994 -0.07028,-0.81855 -0.210841,-1.16582 -0.132292,-0.35553 -0.338997,-0.65732 -0.620117,-0.90537 -0.272852,-0.24804 -0.620117,-0.43821 -1.041797,-0.57051 -0.42168,-0.13229 -0.921906,-0.19843 -1.500683,-0.19843 z"
       id="rect4522"
       inkscape:connector-curvature="0" />
    <g
       id="g4574"
       style="display:inline" />
    <text
       xml:space="preserve"
       style="font-style:normal;font-variant:normal;font-weight:normal;font-stretch:normal;font-size:10.58333302px;line-height:1.25;font-family:'Bad Signal';-inkscape-font-specification:'Bad Signal';letter-spacing:0px;word-spacing:0px;display:inline;fill:#000000;fill-opacity:1;stroke:none;stroke-width:0.26458332"
       x="5.912745"
       y="278.94119"
       id="text4520"><tspan
         sodipodi:role="line"
         id="tspan4518"
         x="5.912745"
         y="278.94119"
         style="font-style:normal;font-variant:normal;font-weight:bold;font-stretch:normal;font-size:25.39999962px;font-family:Consolas;-inkscape-font-specification:'Consolas Bold';stroke-width:0.26458332"><tspan
           style="fill:#ff8800;fill-opacity:1"
           id="tspan4528"><tspan
   style="fill:#ff8800;fill-opacity:0"
   id="tspan4586">VP</tspan>etitjean</tspan></tspan></text>
  </g>
</svg>
